PathFileType	4	(X/Y/Z)	Patient4_TMGait_0pt7_02_right_04.trc.trc
DataRate	CameraRate	NumFrames	NumMarkers	Units	OrigDataRate	OrigDataStartFrame	OrigNumFrames
83.832335329341	83.832335329341	4	33	mm	83.832335329341	36	       141
Frame#	Time	Sacral			L.Shoulder			Chest			R.Shoulder			Neck			R.ASIS			L.ASIS			R.Thigh.Superior			R.Thigh.Lateral			R.Thigh.Inferior			R.Patella			L.Thigh.Superior			L.Thigh.Lateral			L.Thigh.Inferior			L.Patella			L.Shank.Superior			L.Shank.Lateral			L.Shank.Inferior			R.Shank.Superior			R.Shank.Lateral			R.Shank.Inferior			R.Heel			R.Midfoot.Superior			R.Midfoot.Lateral			R.Toe			L.Heel			L.Midfoot.Lateral			L.Midfoot.Superior			L.Toe			L.Elbow			L.Wrist			R.Elbow			R.Wrist			
		X1	Y1	Z1	X2	Y2	Z2	X3	Y3	Z3	X4	Y4	Z4	X5	Y5	Z5	X6	Y6	Z6	X7	Y7	Z7	X8	Y8	Z8	X9	Y9	Z9	X10	Y10	Z10	X11	Y11	Z11	X12	Y12	Z12	X13	Y13	Z13	X14	Y14	Z14	X15	Y15	Z15	X16	Y16	Z16	X17	Y17	Z17	X18	Y18	Z18	X19	Y19	Z19	X20	Y20	Z20	X21	Y21	Z21	X22	Y22	Z22	X23	Y23	Z23	X24	Y24	Z24	X25	Y25	Z25	X26	Y26	Z26	X27	Y27	Z27	X28	Y28	Z28	X29	Y29	Z29	X30	Y30	Z30	X31	Y31	Z31	X32	Y32	Z32	X33	Y33	Z33	

36	4.007500000000	796.646309362188	1001.805331661765	485.704455825707	1004.752311204610	1424.491265909377	308.859897145428	1099.011297574147	1347.631890007345	473.240218424621	1012.753891525923	1430.356445719909	642.149098223998	1004.259547598641	1483.252931471832	462.393844935946	1020.974863784724	931.109338159045	608.968521471118	1029.049016650955	973.769044530518	338.068463373259	1088.093450946231	751.364763776150	585.236648794833	1019.716184876942	633.092417409178	640.933171618963	1110.528397722068	592.917315905827	567.748958059555	1124.557683251979	503.673522497362	575.819792441232	1039.627203112770	732.810894075380	353.298257350210	944.788824696820	623.904160098107	285.723214200010	1026.084077002194	533.700987485820	340.680145317414	1013.707280466071	449.378798187834	337.473898032400	944.321427593172	393.543733275698	333.123038117750	803.433958947894	350.909072161253	284.475030136792	789.525553651818	224.178588780898	344.831608663347	1102.980916046719	412.219350552692	580.757826712361	1036.204230903998	301.574979539203	635.883956527971	1094.039073086536	211.970518567581	576.721122883719	977.030859531229	41.681125440034	535.910616499000	1147.050222992688	101.070845956195	578.452807118979	1058.471290628747	36.051762435176	612.382986968312	1265.963263651235	51.114015929308	606.366706538754	598.591717004005	152.140098177863	383.211717087114	659.848625120939	108.936343443329	305.069367566096	763.147496756536	127.196124008358	326.984669125586	849.955397399481	32.918787109172	303.689734126279	963.059223976599	1085.424902090703	176.534143029301	1211.567961760195	1063.653468553507	221.845965816947	866.367302292369	1120.280226133388	762.330312538659	835.407748757552	860.475927245080	775.233626145118	
37	4.019428571429	796.832229062408	1003.707387664276	488.638208283759	1003.941363068792	1427.249707680281	312.264431957001	1099.486184680979	1349.337585429095	475.459299931749	1014.695979596967	1431.129111739625	645.397073072739	1004.683053290510	1484.984279265569	466.132584566622	1021.645942217870	933.108624757658	610.649659085938	1024.997520958011	971.453350944505	339.005410034595	1085.899823478556	750.556566247972	588.447861653375	1015.181130015758	633.632698027552	642.961705416737	1105.692335355506	592.360670218456	569.963822697445	1118.265633334314	503.143186155398	577.734392594820	1044.277666806620	736.411120509599	354.804241261167	953.665758240884	625.070997737319	286.402448781374	1038.229845192867	536.755350820596	340.522073068134	1027.216773965853	451.220823573783	336.757288837477	956.045380460315	395.460555598217	332.998567776165	813.274725154547	357.614159130961	285.627767187030	795.886413311124	231.185177112198	345.613604701303	1096.051286365340	412.037687166967	582.563237048838	1028.192626336738	301.674211357663	636.933508046928	1086.034222123443	211.924553543563	577.871402751277	968.791560713778	41.564099651050	536.211762926338	1138.674369687806	101.338153974316	579.017580039061	1050.197922304662	35.976647141130	612.682758981381	1257.613284245939	51.531133005944	606.668737417087	602.658754990049	167.059839097195	385.552503813047	661.272238151985	121.236342066469	306.625755589134	765.880146636109	134.359880164386	327.604199630727	847.537624995943	33.860910268673	302.971121162177	955.379538119184	1088.247450769588	181.870154142169	1202.748623283297	1050.977164842523	226.262350547298	875.325234237172	1116.172483812349	764.321434198611	853.257222071449	855.222868963270	774.555164836480	
38	4.031357142857	796.876389947434	1005.518466232744	491.483287958263	1002.790078105643	1429.903128887338	315.546302386569	1099.789904795525	1350.913492475412	477.444679309383	1016.658980855553	1431.696468768506	648.529685294859	1004.925777070752	1486.604566931919	469.808579003470	1022.169294841890	934.958250301395	612.135388427970	1019.019256815137	967.265569428924	339.319278174610	1083.403354263968	749.678776778196	591.390052721297	1010.458633486753	634.074956136605	644.830487278011	1100.626937261374	591.751746432322	571.983321276750	1111.722103321200	502.600566796792	579.494958744431	1048.720261653760	740.319141644882	356.035307107725	962.229967161225	626.749595654121	286.778200004035	1049.971609059036	540.448302908950	340.014997535967	1040.528661129258	453.813196992167	335.753264147492	967.943812499845	397.938467418205	332.597447223218	823.567829464825	364.203423169468	286.674925191699	803.369247500676	238.073645197422	346.346779110770	1088.964761169207	411.838078609314	584.179941989235	1020.106210132175	301.750100096393	637.838891424973	1077.972835981540	211.866203718231	578.888643607737	960.522071683586	41.475251309009	536.449949873635	1130.306940922898	101.477858966486	579.481162618645	1041.901263808026	35.908333849261	612.914798080292	1249.264211475036	51.800511900811	606.896307060476	608.556542743327	180.568293889485	388.130863894004	664.665967938660	132.828521447106	308.288909529829	770.268903908703	141.584739980325	328.249610153343	847.450720408832	35.572680028715	301.986852811511	947.762676366119	1091.063851106849	187.088968524732	1192.869687890858	1037.145234342409	230.332507939689	884.808822953207	1111.933640085805	766.243784679611	872.131173679319	850.088759820249	773.871897810548	
39	4.043285714286	796.794631372643	1007.203903931435	494.226955969472	1001.362441917736	1432.394992624729	318.680313420860	1099.931938696160	1352.324422683915	479.206478513245	1018.613741025861	1432.062093896989	651.521211981501	1005.023971527871	1488.093498778620	473.373861647524	1022.560159422930	936.649994553485	613.483472753126	1012.720668515143	962.733135199868	339.494403435231	1080.704424365824	748.825810568841	593.962411999302	1005.727481581197	634.459568222761	646.542490680306	1095.470860014382	591.121885028268	573.777472654392	1105.080591408705	502.063644734535	581.090437467898	1052.916880091288	744.497911366128	357.019465473325	970.381606391350	628.920940188912	286.886744088907	1061.198463427465	544.744931803176	339.197921459964	1053.525735211622	457.130862338278	334.457123105501	979.922064154227	400.939927996916	331.914849170239	834.225261936061	370.471031185366	287.552775468105	812.007285811599	244.576010820451	346.946493356678	1081.859152203373	411.622582255114	585.596342586599	1012.070922958158	301.820491050683	638.616129406648	1069.920072668254	211.789066364327	579.762175000267	952.208760425580	41.419994353158	536.637890096489	1121.947118580611	101.509233960403	579.846446013188	1033.570408028704	35.854523059602	613.090908704813	1240.908345228197	51.925889404224	607.061228946071	616.274549325130	192.118735378942	390.757739919376	670.152882918203	143.168728038373	309.925938668103	776.461717108794	148.512830604136	328.813542585869	850.043025546559	38.007913494123	300.747793025172	940.271871477324	1093.769591860923	192.181142555644	1181.764486903484	1022.265423665665	233.986009904984	894.833121013304	1107.594491046230	768.048653266009	891.978679726869	845.169392643353	773.136781656550	
